<?xml version="1.0" standalone="no"?>
<!DOCTYPE svg PUBLIC "-//W3C//DTD SVG 20010904//EN"
 "http://www.w3.org/TR/2001/REC-SVG-20010904/DTD/svg10.dtd">
<svg version="1.0" xmlns="http://www.w3.org/2000/svg"
 width="320.000000pt" height="80.000000pt" viewBox="0 0 320.000000 80.000000"
 preserveAspectRatio="xMidYMid meet">

<g transform="translate(0.000000,80.000000) scale(0.100000,-0.100000)"
fill="#000000" stroke="none">
<path d="M1013 413 c15 -4 17 -17 17 -98 0 -65 -4 -95 -12 -98 -7 -3 7 -6 32
-6 35 0 41 2 28 10 -15 8 -18 25 -18 99 0 61 4 90 13 93 6 3 -8 5 -33 5 -25 0
-37 -2 -27 -5z"/>
<path d="M1666 384 c-4 -10 -3 -20 2 -23 5 -3 14 -21 20 -38 11 -32 10 -33
-18 -33 -28 0 -29 2 -19 26 5 15 8 29 5 31 -2 2 -9 -13 -16 -34 -7 -21 -21
-53 -31 -70 l-18 -33 27 0 c20 0 23 3 13 9 -12 8 -13 14 -3 35 22 50 107 21
88 -30 -4 -10 3 -14 27 -14 18 0 27 4 20 8 -6 4 -25 43 -43 87 -36 91 -45 104
-54 79z"/>
<path d="M1808 390 c-4 -8 -9 -52 -10 -98 -3 -81 -3 -82 22 -82 19 0 21 3 12
12 -14 14 -16 48 -4 48 5 0 18 -13 30 -30 13 -16 30 -30 38 -30 13 0 13 2 -1
16 -9 9 -24 28 -33 42 -15 23 -15 25 7 43 13 11 19 19 14 19 -6 0 -18 -9 -28
-20 -28 -31 -34 -25 -37 38 -2 31 -6 50 -10 42z"/>
<path d="M1948 390 c-4 -8 -9 -52 -10 -98 -3 -82 -3 -82 22 -81 14 0 19 3 13
6 -13 4 -19 53 -7 53 3 0 17 -13 31 -30 13 -16 31 -30 39 -30 10 0 5 11 -15
33 -37 38 -38 51 -9 71 12 9 18 16 12 16 -6 0 -19 -9 -29 -20 -28 -31 -34 -25
-37 38 -2 31 -6 50 -10 42z"/>
<path d="M1186 331 c-3 -5 1 -11 9 -15 8 -3 15 -1 15 4 0 13 -18 22 -24 11z"/>
<path d="M1481 331 c-6 -4 -37 -6 -68 -4 l-58 3 0 -60 c0 -47 3 -60 15 -60 11
0 15 12 15 52 0 50 2 53 25 53 23 0 25 -3 25 -53 0 -40 4 -52 15 -52 11 0 15
12 15 52 0 48 2 53 23 56 23 4 24 1 20 -52 -3 -54 -2 -56 22 -56 19 0 21 3 12
12 -7 7 -12 33 -12 59 0 37 -4 48 -19 52 -10 2 -24 1 -30 -2z"/>
<path d="M1146 308 c-3 -13 -4 -34 -3 -48 2 -14 -1 -31 -6 -37 -7 -10 -2 -13
18 -13 23 0 26 2 15 15 -8 9 -11 30 -7 55 5 43 -9 66 -17 28z"/>
<path d="M1236 308 c-9 -12 -16 -29 -16 -38 0 -26 30 -60 54 -60 12 0 31 7 42
15 18 14 17 14 -8 4 -24 -10 -31 -9 -48 6 -32 29 -25 45 18 45 21 0 42 3 45 6
9 9 -11 44 -25 44 -7 0 -7 -4 1 -13 13 -17 5 -27 -24 -27 -29 0 -37 10 -24 27
6 7 9 13 6 13 -3 0 -13 -10 -21 -22z"/>
<path d="M2077 323 c-10 -9 -9 -23 2 -23 5 0 11 7 15 15 5 15 -5 20 -17 8z"/>
<path d="M2137 309 c4 -12 0 -25 -8 -30 -11 -7 -11 -9 -1 -9 9 0 12 -10 10
-27 -2 -19 2 -29 13 -31 12 -2 14 5 12 35 -6 58 -12 83 -22 83 -5 0 -7 -9 -4
-21z"/>
<path d="M2205 269 c0 -46 3 -59 15 -59 11 0 15 12 15 52 0 50 2 53 25 53 23
0 25 -3 25 -53 0 -40 3 -52 15 -52 12 0 15 9 13 38 -8 81 -9 82 -61 81 l-47
-2 0 -58z"/>
<path d="M2082 261 c-22 -14 -10 -46 18 -48 16 -1 19 0 7 4 -14 3 -18 12 -14
29 2 13 4 24 3 24 0 0 -7 -4 -14 -9z"/>
</g>
</svg>
